<svg width="53" height="55" viewBox="0 0 53 55" fill="none" xmlns="http://www.w3.org/2000/svg">
<path fill-rule="evenodd" clip-rule="evenodd" d="M15.69 9.86689C15.079 13.8109 15.0285 19.2264 16.0111 23.729C16.5455 26.1776 17.3496 28.1863 18.3909 29.5398C19.3846 30.8313 20.5366 31.4735 21.9798 31.4735H23.4198L23.8766 32.8392C24.9446 36.033 24.1724 38.5589 23.2279 40.6158H30.5767C30.2635 40.1609 30.003 39.6836 29.7921 39.1877C28.851 36.9743 29.0373 34.7072 29.4047 33.0424L29.751 31.4735H31.3577C32.6145 31.4735 33.7352 30.853 34.7987 29.4408C35.8922 27.9888 36.7831 25.8625 37.4618 23.33C38.6626 18.8495 39.0731 13.5885 39.077 9.88674C33.7375 7.86772 29.8994 6.97819 26.4472 7.0004C23.0225 7.02244 19.8019 7.94351 15.69 9.86689ZM37.1896 40.6158C34.8638 39.7815 33.9004 38.6272 33.4731 37.6225C33.1635 36.8942 33.0694 36.0888 33.1159 35.2703C35.1495 34.7857 36.7641 33.4802 37.994 31.8472C39.5293 29.8085 40.5867 27.122 41.3255 24.3654C42.8081 18.8332 43.1696 12.3863 43.0582 8.45135L43.0209 7.13038L41.7911 6.6467C35.6332 4.22482 30.9032 2.97165 26.4214 3.00049C21.8994 3.02959 17.8375 4.36145 13.0191 6.71012L12.1194 7.14864L11.9311 8.13158C11.0785 12.5814 10.9064 19.0982 12.1031 24.5818C12.7005 27.3196 13.675 29.97 15.2207 31.979C16.509 33.6534 18.2223 34.9047 20.3759 35.3224C20.5813 36.8487 20.0421 37.951 19.2345 39.6021C19.0801 39.9177 18.9159 40.2533 18.7453 40.6158H12.9253H12.1771L11.6126 41.1068C9.92247 42.5771 9.01609 44.5613 8.53942 46.1965C8.0695 47.8085 7.93873 49.357 8.02521 50.2033L8.2088 52H10.0148H43.9694H45.7527L45.9563 50.2284C46.1338 48.6845 45.7361 46.7789 45.2974 45.2932C44.8618 43.8181 44.237 42.2648 43.6559 41.4522L43.0576 40.6158H42.0292H37.1896ZM17.0179 44.6158H13.7536C13.1186 45.3599 12.6695 46.3215 12.3796 47.3159C12.3113 47.5501 12.2538 47.7796 12.2059 48H41.8447C41.7538 47.5133 41.6245 46.9794 41.4611 46.4259C41.2473 45.7017 41.0161 45.0798 40.8191 44.6158H36.8551H20.0395H17.0179Z" fill="white"/>
<path d="M12.6402 13.7455C11.7185 12.11 7.67471 9.00525 5.06025 10.3137C1.79216 11.9492 1.03799 15.4929 3.30051 18.764C5.56303 22.0351 14.8973 25.0191 13.93 28.7769C12.9627 32.5347 9.73836 30.8267 6.19161 28.7769" stroke="white" stroke-width="4" stroke-linecap="round"/>
<path d="M41.257 13.7571C42.1788 12.1215 45.3253 9.0043 47.9398 10.3128C51.2078 11.9484 51.962 15.4922 49.6995 18.7635C47.437 22.0347 38.1027 25.0188 39.07 28.7768C40.0373 32.5348 43.2616 30.8267 46.8084 28.7768" stroke="white" stroke-width="4" stroke-linecap="round"/>
<path d="M13 13.375C27 8.87501 27 8.875 41 13.375" stroke="white" stroke-width="2" stroke-linecap="round"/>
<path d="M26.5342 15.5712C26.6997 15.1467 27.3003 15.1467 27.4658 15.5712L28.3065 17.7273C28.5311 18.3032 29.0859 18.6824 29.704 18.6824H31.9771C32.4831 18.6824 32.6689 19.348 32.236 19.6101L30.7296 20.5221C30.106 20.8997 29.8442 21.671 30.109 22.3502L30.7543 24.0051C30.9278 24.4502 30.4381 24.8618 30.0295 24.6144L27.7769 23.2506C27.2993 22.9615 26.7007 22.9615 26.2231 23.2506L23.9705 24.6144C23.5619 24.8618 23.0722 24.4502 23.2457 24.0051L23.891 22.3502C24.1558 21.671 23.894 20.8997 23.2704 20.5221L21.764 19.6101C21.3311 19.348 21.5169 18.6824 22.0229 18.6824H24.296C24.9141 18.6824 25.4689 18.3032 25.6935 17.7273L26.5342 15.5712Z" fill="white" stroke="white"/>
</svg>
