<svg width="69" height="65" viewBox="0 0 69 65" fill="none" xmlns="http://www.w3.org/2000/svg">
<path fill-rule="evenodd" clip-rule="evenodd" d="M19.5751 8.10142C18.6969 13.5587 18.5936 21.1976 19.9497 27.5478C20.6704 30.9226 21.7682 33.7625 23.2378 35.7144C24.6614 37.6051 26.366 38.5965 28.5036 38.5965H29.9534L30.4044 39.9744C31.9203 44.6065 30.5071 48.0533 29.0846 50.9891H41.3143C40.5058 50.0826 39.8964 49.0942 39.4618 48.0497C38.297 45.2504 38.5176 42.3555 38.9888 40.1742L39.3296 38.5965H40.9437C42.8573 38.5965 44.5169 37.6107 46.0176 35.5745C47.5455 33.5012 48.7574 30.5169 49.669 27.0411C51.3366 20.6827 51.8669 13.2063 51.8353 8.12257C44.4968 5.25554 39.2083 3.96911 34.4258 4.00056C29.6716 4.03182 25.2287 5.36742 19.5751 8.10142ZM48.5745 50.9891C45.2872 49.8083 43.8201 48.1117 43.1548 46.513C42.6193 45.226 42.5244 43.8126 42.6685 42.4381C45.4137 41.922 47.5834 40.192 49.2376 37.9476C51.1968 35.2892 52.5694 31.7495 53.5381 28.0558C55.4811 20.6477 55.9584 11.9861 55.812 6.6997L55.7757 5.38848L54.5586 4.89933C46.4153 1.62657 40.2279 -0.0376781 34.3995 0.000647187C28.5299 0.0392432 23.2375 1.80206 16.8877 4.96485L15.997 5.40848L15.8136 6.38649C14.6989 12.3318 14.4744 21.0617 16.0379 28.3832C16.8187 32.039 18.0802 35.5145 20.0423 38.1204C21.7528 40.3922 24.0374 42.0413 26.9347 42.4803C27.4396 45.0866 26.5814 46.8738 25.3846 49.3659C25.1409 49.8734 24.8831 50.4102 24.62 50.9891H16.4925H15.732L15.1637 51.4943C13.056 53.3678 11.9084 55.9142 11.2983 58.0528C10.6939 60.1713 10.5389 62.1706 10.6416 63.1975L10.8217 64.9985H12.6317H57.6734H59.4611L59.6609 63.2221C59.8786 61.2871 59.3884 58.8257 58.812 56.8309C58.2391 54.8481 57.4373 52.841 56.7381 51.8422L56.141 50.9891H55.0997H48.5745ZM22.9333 54.9891H17.3113C16.2734 56.1307 15.5758 57.6394 15.1448 59.1502C14.9531 59.8222 14.8257 60.4529 14.7437 60.9985H55.6284C55.5116 60.0805 55.2812 59.0209 54.9692 57.9413C54.6194 56.7305 54.2261 55.6938 53.9086 54.9891H48.2362H25.9298H22.9333Z" fill="#583430"/>
<path d="M16.1146 13.8547C14.8919 11.6377 9.52768 7.42918 6.05951 9.2028C1.7243 11.4198 0.723862 16.2234 3.72516 20.6574C6.72646 25.0914 19.1086 29.1363 17.8255 34.2301C16.5423 39.3239 12.2652 37.0086 7.5603 34.2301" stroke="#583430" stroke-width="4" stroke-linecap="round"/>
<path d="M54.0756 13.8704C55.2984 11.6533 59.4723 7.42789 62.9405 9.20158C67.2757 11.4187 68.2761 16.2224 65.2748 20.6567C62.2735 25.0909 49.8914 29.136 51.1745 34.23C52.4577 39.324 56.7348 37.0086 61.4397 34.23" stroke="#583430" stroke-width="4" stroke-linecap="round"/>
<path d="M16.5918 13.3525C35.1632 7.25263 35.1632 7.25263 53.7347 13.3525" stroke="#583430" stroke-width="2" stroke-linecap="round"/>
<path d="M35.6305 15.4708L37.1311 19.4036C37.3529 19.9848 37.9104 20.3688 38.5326 20.3688L43.0008 20.3688C43.5044 20.3688 43.6921 21.0291 43.2639 21.294L39.9401 23.3504C39.3283 23.7289 39.0714 24.4886 39.3279 25.1607L40.6596 28.6509C40.8301 29.0977 40.3361 29.506 39.9293 29.2543L35.9526 26.794C35.469 26.4948 34.8578 26.4948 34.3742 26.794L30.3974 29.2543C29.9907 29.506 29.4967 29.0977 29.6672 28.6509L30.9989 25.1608C31.2554 24.4886 30.9985 23.7289 30.3867 23.3504L27.0629 21.294C26.6347 21.0291 26.8224 20.3688 27.3259 20.3688L31.7942 20.3688C32.4163 20.3688 32.9739 19.9848 33.1957 19.4036L34.6962 15.4708C34.8599 15.0418 35.4668 15.0418 35.6305 15.4708Z" fill="#583430" stroke="#583430"/>
</svg>
