<svg width="65" height="53" viewBox="0 0 65 53" fill="none" xmlns="http://www.w3.org/2000/svg">
<path d="M59.0154 17.9856H20.4857C18.7591 17.9856 17.2878 19.2379 16.9818 20.9372C15.8431 27.2588 12.8659 41.9409 8.98535 46.9856C8.30443 47.8708 7.70696 48.5798 7.18285 49.1442C5.48997 50.9672 5.76695 50.5082 8.25464 50.5328L51.0305 50.9563C52.7869 50.9737 54.3492 49.8432 54.8818 48.1694L62.8271 23.1984C63.6479 20.6186 61.7226 17.9856 59.0154 17.9856Z" stroke="#583430" stroke-width="3"/>
<path fill-rule="evenodd" clip-rule="evenodd" d="M5.5 3C4.11929 3 3 4.11929 3 5.5V46.9712C3 48.3519 4.11929 49.4712 5.5 49.4712H49.9615V52.4712H5.5C2.46244 52.4712 0 50.0087 0 46.9712V5.5C0 2.46243 2.46244 0 5.5 0H21.2626C22.9503 0 24.5446 0.774885 25.5873 2.10198L28.738 6.11186C29.2119 6.71509 29.9366 7.06731 30.7038 7.06731H51.4181C54.5069 7.06731 56.99 9.61027 56.9165 12.6982L56.8025 17.4856H53.8017L53.9173 12.6268C53.9508 11.2232 52.8221 10.0673 51.4181 10.0673H30.7038C29.016 10.0673 27.4217 9.29242 26.379 7.96533L23.2284 3.95545C22.7544 3.35222 22.0297 3 21.2626 3H5.5Z" fill="#583430"/>
</svg>
