<svg width="69" height="69" viewBox="0 0 69 69" fill="none" xmlns="http://www.w3.org/2000/svg">
<path d="M14 33.4491C14 29.5455 14 27.5938 14.7891 25.8781C15.5782 24.1625 17.0601 22.8923 20.0238 20.3519L22.8988 17.8876C28.2559 13.2959 30.9344 11 34.125 11C37.3156 11 39.9941 13.2959 45.3512 17.8876L48.2262 20.3519C51.19 22.8923 52.6718 24.1625 53.4609 25.8781C54.25 27.5938 54.25 29.5455 54.25 33.4491V45.6402C54.25 51.0614 54.25 53.7719 52.5659 55.4561C50.8817 57.1402 48.1712 57.1402 42.75 57.1402H25.5C20.0788 57.1402 17.3683 57.1402 15.6841 55.4561C14 53.7719 14 51.0614 14 45.6402V33.4491Z" stroke="white" stroke-width="4"/>
<path d="M41.3125 57.1402V40.8902C41.3125 40.3379 40.8648 39.8902 40.3125 39.8902H27.9375C27.3852 39.8902 26.9375 40.3379 26.9375 40.8902V57.1402" stroke="white" stroke-width="4" stroke-linecap="round" stroke-linejoin="round"/>
</svg>
