<svg width="56" height="56" viewBox="0 0 56 56" fill="none" xmlns="http://www.w3.org/2000/svg">
<path d="M7 11C7 9.11438 7 8.17157 7.58579 7.58579C8.17157 7 9.11438 7 11 7H45C46.8856 7 47.8284 7 48.4142 7.58579C49 8.17157 49 9.11438 49 11V45C49 46.8856 49 47.8284 48.4142 48.4142C47.8284 49 46.8856 49 45 49H11C9.11438 49 8.17157 49 7.58579 48.4142C7 47.8284 7 46.8856 7 45V11Z" stroke="white" stroke-width="4"/>
<path d="M7 16.3333H16.6667C17.6481 16.3333 18.1388 16.3333 18.5611 16.5445C18.9834 16.7556 19.2778 17.1482 19.8667 17.9333L24.4667 24.0667C25.0555 24.8518 25.3499 25.2444 25.7722 25.4555C26.1945 25.6667 26.6852 25.6667 27.6667 25.6667H45C46.8856 25.6667 47.8284 25.6667 48.4142 25.0809C49 24.4951 49 23.5523 49 21.6667V18.6667" stroke="white" stroke-width="4"/>
<path d="M16.3333 37.3333H35" stroke="white" stroke-width="4" stroke-linecap="round"/>
</svg>
