<svg width="256" height="71" viewBox="0 0 256 71" fill="none" xmlns="http://www.w3.org/2000/svg">
<path d="M20.9774 29.4438C20.9774 21.6122 23.7743 16.8574 28.669 12.6619C33.5638 8.46644 39.1577 7.06795 46.1502 7.76719V56.9403H37.06V52.0456C37.06 49.808 30.5337 46.4588 29.3683 45.5264C25.639 42.9625 20.9774 37.2753 20.9774 29.4438Z" fill="#FEDC45" stroke="#583430" stroke-width="1.5"/>
<path d="M36.3607 57.4136H46.1502V60.2106H36.3607C36.1277 60.2106 34.9622 59.9309 34.9622 58.8121C34.9622 57.6933 36.1277 57.4136 36.3607 57.4136Z" fill="#81D9FF" stroke="#583430" stroke-width="1.5"/>
<path d="M36.3607 60.2106H46.1502V63.0076H36.3607C36.1277 63.0076 34.9622 62.7279 34.9622 61.6091C34.9622 60.4903 36.1277 60.2106 36.3607 60.2106Z" fill="#81D9FF" stroke="#583430" stroke-width="1.5"/>
<path d="M36.3607 63.0076H46.1502V65.8045H36.3607C36.1277 65.8045 34.9622 65.5249 34.9622 64.4061C34.9622 63.2873 36.1277 63.0076 36.3607 63.0076Z" fill="#81D9FF" stroke="#583430" stroke-width="1.5"/>
<path d="M41.0181 70C37.9388 70 37.5967 66.7369 37.8106 65.8045H46.1502V70H41.0181Z" fill="#F9A287" stroke="#583430" stroke-width="1.5"/>
<circle cx="14.1849" cy="5.54722" r="4.14472" transform="rotate(-8.26106 14.1849 5.54722)" fill="#81D9FF" stroke="#583430" stroke-width="1.5"/>
<path d="M15.4797 9.59868C17.4552 8.60528 17.4552 8.60528 18.5378 6.32837L23.2925 9.87748L27.8195 13.2566C26.7638 14.3195 25.3529 15.7344 24.7614 16.5269L20.2345 13.1478L15.4797 9.59868Z" fill="white" stroke="#583430" stroke-width="1.5"/>
<path d="M8.9702 35.4895C9.95908 33.5117 9.95908 33.5117 9.46464 31.0395H15.3979H20.9773C20.9773 32.94 21.6766 34.5006 21.6766 35.4895L14.9035 35.4895L8.9702 35.4895Z" fill="white" stroke="#583430" stroke-width="1.5"/>
<path d="M19.5789 53.0171C21.6766 53.7164 21.6766 53.7164 23.0751 55.8141L27.2706 51.6186L31.265 47.6241C30.0675 46.7239 28.4681 45.5264 27.7688 44.8272L23.7743 48.8216L19.5789 53.0171Z" fill="white" stroke="#583430" stroke-width="1.5"/>
<circle cx="18.8796" cy="56.7144" r="4.14472" fill="#F9A287" stroke="#583430" stroke-width="1.5"/>
<circle cx="4.89472" cy="32.94" r="4.14472" fill="#F8F3F3" stroke="#583430" stroke-width="1.5"/>
<path d="M32.6536 30.6364C33.716 37.4909 41.2191 38.5455 46 38.5455V57H41.2191V42.2364C32.6536 42.2364 29.0013 34.8545 29.0013 30.6364C29.0013 30.6364 28.8951 28 30.5949 28C32.2948 28 32.6536 30.6364 32.6536 30.6364Z" fill="white" stroke="#583430" stroke-linecap="round"/>
<path d="M59.7176 45.2822C59.7371 45.0576 59.7713 44.8037 59.8201 44.5205C59.8689 44.2861 59.9324 44.0078 60.0105 43.6855C60.0984 43.3535 60.2254 42.9971 60.3914 42.6162C60.9187 42.792 61.4558 42.9482 62.0027 43.085C62.4715 43.2021 62.9842 43.3096 63.5408 43.4072C64.0974 43.5049 64.6297 43.5537 65.1375 43.5537C65.909 43.5537 66.5535 43.4951 67.0711 43.3779C67.5984 43.2607 68.0183 43.0898 68.3308 42.8652C68.6531 42.6309 68.8826 42.3428 69.0193 42.001C69.156 41.6494 69.2244 41.2441 69.2244 40.7852C69.2244 40.2676 69.1512 39.8281 69.0047 39.4668C68.868 39.1055 68.6531 38.793 68.3601 38.5293C68.0769 38.2656 67.7107 38.041 67.2615 37.8555C66.8123 37.6699 66.2801 37.4893 65.6648 37.3135C64.5906 37.0205 63.6824 36.7031 62.9402 36.3613C62.198 36.0098 61.5926 35.6094 61.1238 35.1602C60.6648 34.7109 60.3328 34.2031 60.1277 33.6367C59.9226 33.0605 59.8201 32.4062 59.8201 31.6738C59.8201 30.6191 59.9812 29.7158 60.3035 28.9639C60.6355 28.2119 61.0994 27.5967 61.6951 27.1182C62.3006 26.6396 63.0281 26.2881 63.8777 26.0635C64.7371 25.8389 65.6941 25.7266 66.7488 25.7266C67.5594 25.7266 68.2674 25.79 68.8728 25.917C69.4881 26.0439 70.0056 26.1807 70.4256 26.3271C70.9138 26.5029 71.3387 26.7031 71.7 26.9277C71.6707 27.1523 71.6121 27.3965 71.5242 27.6602C71.4461 27.8848 71.3387 28.1484 71.2019 28.4512C71.0652 28.7539 70.8748 29.0811 70.6306 29.4326C70.3377 29.2373 69.9959 29.0615 69.6053 28.9053C69.2635 28.7686 68.8484 28.6465 68.3601 28.5391C67.8816 28.4219 67.325 28.3633 66.6902 28.3633C65.9969 28.3633 65.4109 28.417 64.9324 28.5244C64.4637 28.6318 64.0779 28.8027 63.7752 29.0371C63.4724 29.2617 63.2527 29.5498 63.116 29.9014C62.989 30.2432 62.9256 30.6533 62.9256 31.1318C62.9256 31.6689 62.9939 32.1182 63.1306 32.4795C63.2674 32.8311 63.4871 33.1338 63.7898 33.3877C64.0926 33.6318 64.4832 33.8467 64.9617 34.0322C65.45 34.2178 66.0359 34.4082 66.7195 34.6035C67.7449 34.8867 68.6189 35.1895 69.3416 35.5117C70.0642 35.834 70.6502 36.21 71.0994 36.6396C71.5584 37.0693 71.8904 37.582 72.0955 38.1777C72.3103 38.7637 72.4178 39.4717 72.4178 40.3018C72.4178 41.3271 72.2859 42.2207 72.0222 42.9824C71.7586 43.7344 71.3387 44.3643 70.7625 44.8721C70.1863 45.3799 69.4441 45.7559 68.5359 46C67.6277 46.2539 66.534 46.3809 65.2547 46.3809C64.493 46.3809 63.7752 46.3223 63.1013 46.2051C62.4275 46.0977 61.8416 45.9756 61.3435 45.8389C60.7478 45.6729 60.2058 45.4873 59.7176 45.2822ZM75.992 24.9062H78.9803V36.0537L78.8338 38.1777L79.6101 37.2549L84.3123 31.0293H87.8572L83.0965 37.0645L81.8806 38.2217L82.8328 39.0859L88.1209 46H84.5613L79.5222 39.2324L78.8338 38.3535L78.9803 41.0195V46H75.992V24.9062ZM92.1931 28.4951C91.9197 28.4951 91.6609 28.4463 91.4168 28.3486C91.1824 28.251 90.9724 28.1191 90.7869 27.9531C90.6111 27.7871 90.4695 27.5967 90.3621 27.3818C90.2547 27.1572 90.201 26.918 90.201 26.6641C90.201 26.4004 90.2547 26.1562 90.3621 25.9316C90.4695 25.707 90.6111 25.5117 90.7869 25.3457C90.9724 25.1797 91.1824 25.0527 91.4168 24.9648C91.6609 24.8672 91.9197 24.8184 92.1931 24.8184C92.4666 24.8184 92.7254 24.8672 92.9695 24.9648C93.2137 25.0527 93.4236 25.1797 93.5994 25.3457C93.7849 25.5117 93.9314 25.707 94.0388 25.9316C94.1463 26.1562 94.2 26.4004 94.2 26.6641C94.2 26.918 94.1463 27.1572 94.0388 27.3818C93.9314 27.5967 93.7849 27.7871 93.5994 27.9531C93.4236 28.1191 93.2137 28.251 92.9695 28.3486C92.7254 28.4463 92.4666 28.4951 92.1931 28.4951ZM90.5086 31.0293H93.5555V43.5391L94.4197 44.1543V46H93.5847L93.5555 45.9707V46C92.5887 46 91.8367 45.8047 91.2996 45.4141C90.7722 45.0234 90.5086 44.3789 90.5086 43.4805V31.0293ZM97.906 24.9209H100.938V43.5391L101.803 44.1543V46H100.968L100.938 45.9707V46C99.9715 46 99.2244 45.8047 98.6971 45.4141C98.1697 45.0234 97.906 44.3789 97.906 43.4805V24.9209ZM104.996 24.9209H108.028V43.5391L108.892 44.1543V46H108.057L108.028 45.9707V46C107.061 46 106.314 45.8047 105.787 45.4141C105.26 45.0234 104.996 44.3789 104.996 43.4805V24.9209Z" fill="#FDD81B"/>
<path d="M111.837 45.2822C111.856 45.0576 111.89 44.8037 111.939 44.5205C111.988 44.2861 112.052 44.0078 112.13 43.6855C112.218 43.3535 112.345 42.9971 112.511 42.6162C113.038 42.792 113.575 42.9482 114.122 43.085C114.591 43.2021 115.103 43.3096 115.66 43.4072C116.217 43.5049 116.749 43.5537 117.257 43.5537C118.028 43.5537 118.673 43.4951 119.19 43.3779C119.718 43.2607 120.137 43.0898 120.45 42.8652C120.772 42.6309 121.002 42.3428 121.138 42.001C121.275 41.6494 121.344 41.2441 121.344 40.7852C121.344 40.2676 121.27 39.8281 121.124 39.4668C120.987 39.1055 120.772 38.793 120.479 38.5293C120.196 38.2656 119.83 38.041 119.381 37.8555C118.931 37.6699 118.399 37.4893 117.784 37.3135C116.71 37.0205 115.802 36.7031 115.059 36.3613C114.317 36.0098 113.712 35.6094 113.243 35.1602C112.784 34.7109 112.452 34.2031 112.247 33.6367C112.042 33.0605 111.939 32.4062 111.939 31.6738C111.939 30.6191 112.1 29.7158 112.423 28.9639C112.755 28.2119 113.219 27.5967 113.814 27.1182C114.42 26.6396 115.147 26.2881 115.997 26.0635C116.856 25.8389 117.813 25.7266 118.868 25.7266C119.678 25.7266 120.387 25.79 120.992 25.917C121.607 26.0439 122.125 26.1807 122.545 26.3271C123.033 26.5029 123.458 26.7031 123.819 26.9277C123.79 27.1523 123.731 27.3965 123.643 27.6602C123.565 27.8848 123.458 28.1484 123.321 28.4512C123.184 28.7539 122.994 29.0811 122.75 29.4326C122.457 29.2373 122.115 29.0615 121.724 28.9053C121.383 28.7686 120.968 28.6465 120.479 28.5391C120.001 28.4219 119.444 28.3633 118.809 28.3633C118.116 28.3633 117.53 28.417 117.052 28.5244C116.583 28.6318 116.197 28.8027 115.894 29.0371C115.592 29.2617 115.372 29.5498 115.235 29.9014C115.108 30.2432 115.045 30.6533 115.045 31.1318C115.045 31.6689 115.113 32.1182 115.25 32.4795C115.387 32.8311 115.606 33.1338 115.909 33.3877C116.212 33.6318 116.602 33.8467 117.081 34.0322C117.569 34.2178 118.155 34.4082 118.839 34.6035C119.864 34.8867 120.738 35.1895 121.461 35.5117C122.183 35.834 122.769 36.21 123.219 36.6396C123.678 37.0693 124.01 37.582 124.215 38.1777C124.429 38.7637 124.537 39.4717 124.537 40.3018C124.537 41.3271 124.405 42.2207 124.141 42.9824C123.878 43.7344 123.458 44.3643 122.882 44.8721C122.305 45.3799 121.563 45.7559 120.655 46C119.747 46.2539 118.653 46.3809 117.374 46.3809C116.612 46.3809 115.894 46.3223 115.22 46.2051C114.547 46.0977 113.961 45.9756 113.463 45.8389C112.867 45.6729 112.325 45.4873 111.837 45.2822ZM131.202 51.9326H128.067V32.9775L126.91 31.791V30.8682H129.591L130.748 31.8789L131.29 31.9082C131.348 31.8496 131.475 31.752 131.671 31.6152C131.876 31.4688 132.144 31.3223 132.476 31.1758C132.808 31.0195 133.204 30.8877 133.663 30.7803C134.122 30.6631 134.635 30.6045 135.201 30.6045C135.924 30.6045 136.627 30.7217 137.31 30.9561C138.004 31.1904 138.614 31.5957 139.141 32.1719C139.678 32.748 140.108 33.5293 140.43 34.5156C140.753 35.4922 140.914 36.7275 140.914 38.2217C140.914 39.5107 140.714 40.6582 140.313 41.6641C139.923 42.6699 139.395 43.5146 138.731 44.1982C138.067 44.8818 137.291 45.4043 136.402 45.7656C135.523 46.1172 134.595 46.293 133.619 46.293C133.365 46.293 133.092 46.2832 132.799 46.2637C132.515 46.2441 132.257 46.2197 132.022 46.1904C131.739 46.1611 131.466 46.127 131.202 46.0879V51.9326ZM131.202 43.832C131.368 43.8809 131.593 43.9248 131.876 43.9639C132.159 44.0029 132.471 44.0225 132.813 44.0225C133.546 44.0225 134.21 43.8857 134.805 43.6123C135.401 43.3291 135.904 42.9385 136.314 42.4404C136.734 41.9326 137.056 41.3223 137.281 40.6094C137.515 39.8965 137.633 39.1006 137.633 38.2217C137.633 37.1377 137.535 36.2588 137.34 35.585C137.154 34.9014 136.881 34.3691 136.519 33.9883C136.168 33.5977 135.738 33.334 135.23 33.1973C134.722 33.0605 134.156 32.9922 133.531 32.9922C133.258 32.9922 132.984 33.0361 132.711 33.124C132.437 33.2021 132.188 33.2949 131.964 33.4023C131.7 33.5195 131.446 33.6514 131.202 33.7979V43.832ZM143.023 41.7227C143.023 40.9121 143.14 40.2236 143.375 39.6572C143.609 39.0908 143.951 38.627 144.4 38.2656C144.859 37.9043 145.411 37.6357 146.055 37.46C146.71 37.2744 147.457 37.1572 148.297 37.1084L151.563 36.9326V35.7607C151.563 35.2334 151.514 34.7988 151.417 34.457C151.329 34.1152 151.178 33.8418 150.963 33.6367C150.748 33.4316 150.46 33.29 150.098 33.2119C149.747 33.124 149.307 33.0801 148.78 33.0801C148.253 33.0801 147.75 33.1387 147.271 33.2559C146.803 33.373 146.392 33.5 146.041 33.6367C145.621 33.8027 145.235 33.9883 144.884 34.1934C144.669 33.8906 144.498 33.6025 144.371 33.3291C144.244 33.0459 144.146 32.792 144.078 32.5674C143.99 32.3135 143.931 32.0693 143.902 31.835C144.371 31.6006 144.874 31.3955 145.411 31.2197C145.88 31.0635 146.417 30.9219 147.022 30.7949C147.637 30.668 148.282 30.6045 148.956 30.6045C150.069 30.6045 150.992 30.7021 151.724 30.8975C152.457 31.0928 153.038 31.3906 153.468 31.791C153.907 32.1816 154.21 32.6797 154.376 33.2852C154.552 33.8809 154.639 34.5889 154.639 35.4092V43.583L155.87 45.0771V46H153.16L152.032 44.6963H151.505C151.456 44.7451 151.324 44.8574 151.109 45.0332C150.904 45.1992 150.636 45.3799 150.303 45.5752C149.981 45.7607 149.61 45.9268 149.19 46.0732C148.78 46.2197 148.341 46.293 147.872 46.293C147.139 46.293 146.475 46.1855 145.88 45.9707C145.284 45.7461 144.771 45.4336 144.342 45.0332C143.922 44.623 143.595 44.1396 143.36 43.583C143.136 43.0166 143.023 42.3965 143.023 41.7227ZM146.217 41.459C146.217 41.9082 146.28 42.2842 146.407 42.5869C146.534 42.8799 146.71 43.1143 146.934 43.29C147.169 43.4658 147.447 43.5879 147.769 43.6562C148.101 43.7246 148.468 43.7588 148.868 43.7588C149.239 43.7588 149.586 43.7148 149.908 43.627C150.24 43.5293 150.528 43.4219 150.772 43.3047C151.055 43.1777 151.319 43.0264 151.563 42.8506V38.9102L148.619 39.1006C148.16 39.1299 147.774 39.208 147.462 39.335C147.159 39.4619 146.915 39.6279 146.729 39.833C146.544 40.0381 146.412 40.2822 146.334 40.5654C146.256 40.8389 146.217 41.1367 146.217 41.459ZM160.484 30.8682L161.993 32.4502C162.1 32.2061 162.237 31.9766 162.403 31.7617C162.579 31.5371 162.779 31.3418 163.004 31.1758C163.238 31.0098 163.497 30.8779 163.78 30.7803C164.073 30.6826 164.39 30.6338 164.732 30.6338C165.015 30.6338 165.289 30.6582 165.553 30.707C165.816 30.7461 166.104 30.8193 166.417 30.9268C166.427 30.9463 166.436 31.0244 166.446 31.1611C166.466 31.2979 166.475 31.4688 166.475 31.6738C166.475 31.8301 166.466 32.0156 166.446 32.2305C166.427 32.4355 166.392 32.6504 166.344 32.875C166.304 33.0898 166.241 33.3047 166.153 33.5195C166.075 33.7344 165.972 33.9199 165.845 34.0762L165.567 34.1494C165.372 34.0518 165.152 33.9688 164.908 33.9004C164.674 33.832 164.429 33.7979 164.176 33.7979C163.785 33.7979 163.458 33.8271 163.194 33.8857C162.93 33.9346 162.716 33.9883 162.55 34.0469C162.354 34.1152 162.198 34.1934 162.081 34.2812V46H158.946V33.71L157.789 32.5234V30.8682H160.484ZM168.892 24.9062H171.881V36.0537L171.734 38.1777L172.511 37.2549L177.213 31.0293H180.758L175.997 37.0645L174.781 38.2217L175.733 39.0859L181.021 46H177.462L172.423 39.2324L171.734 38.3535L171.881 41.0195V46H168.892V24.9062Z" fill="white"/>
</svg>
