<svg width="146" height="132" viewBox="0 0 146 132" fill="none" xmlns="http://www.w3.org/2000/svg">
<rect width="146" height="132" rx="16" fill="#FFDA5D"/>
<path d="M77.4653 100.415V89.7982C75.0154 82.4484 66.0323 76.7319 55.416 69.3822M83.1818 82.4484C86.7881 76.6721 90.5316 72.6487 97.8813 68.5655M78.282 72.6487C75.832 67.7489 75.0154 66.9322 67.6656 61.2158" stroke="#583430" stroke-width="4" stroke-linecap="round"/>
<path d="M92.9814 58.7656C88.8982 62.0321 87.1016 64.8087 86.4482 66.1153" stroke="#583430" stroke-width="4" stroke-linecap="round"/>
<mask id="path-4-inside-1_191_1162" fill="white">
<path fill-rule="evenodd" clip-rule="evenodd" d="M111.765 68.5652C116.275 68.5652 119.931 64.909 119.931 60.3988C119.931 55.8886 116.275 52.2324 111.765 52.2324C107.255 52.2324 103.599 55.8886 103.599 60.3988C103.599 64.909 107.255 68.5652 111.765 68.5652ZM111.765 63.6653C113.569 63.6653 115.032 62.2028 115.032 60.3987C115.032 58.5947 113.569 57.1322 111.765 57.1322C109.961 57.1322 108.498 58.5947 108.498 60.3987C108.498 62.2028 109.961 63.6653 111.765 63.6653Z"/>
</mask>
<path fill-rule="evenodd" clip-rule="evenodd" d="M111.765 68.5652C116.275 68.5652 119.931 64.909 119.931 60.3988C119.931 55.8886 116.275 52.2324 111.765 52.2324C107.255 52.2324 103.599 55.8886 103.599 60.3988C103.599 64.909 107.255 68.5652 111.765 68.5652ZM111.765 63.6653C113.569 63.6653 115.032 62.2028 115.032 60.3987C115.032 58.5947 113.569 57.1322 111.765 57.1322C109.961 57.1322 108.498 58.5947 108.498 60.3987C108.498 62.2028 109.961 63.6653 111.765 63.6653Z" fill="#583430"/>
<path d="M110.931 60.3988C110.931 59.9384 111.305 59.5652 111.765 59.5652V77.5652C121.246 77.5652 128.931 69.8796 128.931 60.3988H110.931ZM111.765 61.2324C111.305 61.2324 110.931 60.8592 110.931 60.3988H128.931C128.931 50.9181 121.246 43.2324 111.765 43.2324V61.2324ZM112.599 60.3988C112.599 60.8592 112.225 61.2324 111.765 61.2324V43.2324C102.284 43.2324 94.5986 50.9181 94.5986 60.3988H112.599ZM111.765 59.5652C112.225 59.5652 112.599 59.9384 112.599 60.3988H94.5986C94.5986 69.8796 102.284 77.5652 111.765 77.5652V59.5652ZM106.032 60.3987C106.032 57.2322 108.598 54.6653 111.765 54.6653V72.6653C118.54 72.6653 124.032 67.1734 124.032 60.3987H106.032ZM111.765 66.1322C108.598 66.1322 106.032 63.5652 106.032 60.3987H124.032C124.032 53.6241 118.54 48.1322 111.765 48.1322V66.1322ZM117.498 60.3987C117.498 63.5652 114.931 66.1322 111.765 66.1322V48.1322C104.99 48.1322 99.4984 53.6241 99.4984 60.3987H117.498ZM111.765 54.6653C114.931 54.6653 117.498 57.2322 117.498 60.3987H99.4984C99.4984 67.1734 104.99 72.6653 111.765 72.6653V54.6653Z" fill="#583430" mask="url(#path-4-inside-1_191_1162)"/>
<mask id="path-6-inside-2_191_1162" fill="white">
<path fill-rule="evenodd" clip-rule="evenodd" d="M98.6977 52.2326C103.208 52.2326 106.864 48.5764 106.864 44.0662C106.864 39.556 103.208 35.8998 98.6977 35.8998C94.1875 35.8998 90.5312 39.556 90.5312 44.0662C90.5312 48.5764 94.1875 52.2326 98.6977 52.2326ZM98.698 47.3329C100.502 47.3329 101.965 45.8704 101.965 44.0663C101.965 42.2622 100.502 40.7997 98.698 40.7997C96.8939 40.7997 95.4315 42.2622 95.4315 44.0663C95.4315 45.8704 96.8939 47.3329 98.698 47.3329Z"/>
</mask>
<path fill-rule="evenodd" clip-rule="evenodd" d="M98.6977 52.2326C103.208 52.2326 106.864 48.5764 106.864 44.0662C106.864 39.556 103.208 35.8998 98.6977 35.8998C94.1875 35.8998 90.5312 39.556 90.5312 44.0662C90.5312 48.5764 94.1875 52.2326 98.6977 52.2326ZM98.698 47.3329C100.502 47.3329 101.965 45.8704 101.965 44.0663C101.965 42.2622 100.502 40.7997 98.698 40.7997C96.8939 40.7997 95.4315 42.2622 95.4315 44.0663C95.4315 45.8704 96.8939 47.3329 98.698 47.3329Z" fill="#583430"/>
<path d="M97.8641 44.0662C97.8641 43.6058 98.2373 43.2326 98.6977 43.2326V61.2326C108.178 61.2326 115.864 53.5469 115.864 44.0662H97.8641ZM98.6977 44.8998C98.2373 44.8998 97.8641 44.5266 97.8641 44.0662H115.864C115.864 34.5854 108.178 26.8998 98.6977 26.8998V44.8998ZM99.5312 44.0662C99.5312 44.5266 99.158 44.8998 98.6977 44.8998V26.8998C89.2169 26.8998 81.5312 34.5854 81.5312 44.0662H99.5312ZM98.6977 43.2326C99.158 43.2326 99.5312 43.6058 99.5312 44.0662H81.5312C81.5312 53.5469 89.2169 61.2326 98.6977 61.2326V43.2326ZM92.9646 44.0663C92.9646 40.8998 95.5315 38.3329 98.698 38.3329V56.3329C105.473 56.3329 110.965 50.8409 110.965 44.0663H92.9646ZM98.698 49.7997C95.5315 49.7997 92.9646 47.2328 92.9646 44.0663H110.965C110.965 37.2917 105.473 31.7997 98.698 31.7997V49.7997ZM104.431 44.0663C104.431 47.2328 101.865 49.7997 98.698 49.7997V31.7997C91.9234 31.7997 86.4315 37.2917 86.4315 44.0663H104.431ZM98.698 38.3329C101.865 38.3329 104.431 40.8998 104.431 44.0663H86.4315C86.4315 50.8409 91.9234 56.3329 98.698 56.3329V38.3329Z" fill="#583430" mask="url(#path-6-inside-2_191_1162)"/>
<mask id="path-8-inside-3_191_1162" fill="white">
<path fill-rule="evenodd" clip-rule="evenodd" d="M56.2328 55.499C60.743 55.499 64.3992 51.8428 64.3992 47.3326C64.3992 42.8224 60.743 39.1662 56.2328 39.1662C51.7226 39.1662 48.0664 42.8224 48.0664 47.3326C48.0664 51.8428 51.7226 55.499 56.2328 55.499ZM56.2328 50.5989C58.0369 50.5989 59.4993 49.1364 59.4993 47.3323C59.4993 45.5283 58.0369 44.0658 56.2328 44.0658C54.4287 44.0658 52.9662 45.5283 52.9662 47.3323C52.9662 49.1364 54.4287 50.5989 56.2328 50.5989Z"/>
</mask>
<path fill-rule="evenodd" clip-rule="evenodd" d="M56.2328 55.499C60.743 55.499 64.3992 51.8428 64.3992 47.3326C64.3992 42.8224 60.743 39.1662 56.2328 39.1662C51.7226 39.1662 48.0664 42.8224 48.0664 47.3326C48.0664 51.8428 51.7226 55.499 56.2328 55.499ZM56.2328 50.5989C58.0369 50.5989 59.4993 49.1364 59.4993 47.3323C59.4993 45.5283 58.0369 44.0658 56.2328 44.0658C54.4287 44.0658 52.9662 45.5283 52.9662 47.3323C52.9662 49.1364 54.4287 50.5989 56.2328 50.5989Z" fill="#583430"/>
<path d="M55.3992 47.3326C55.3992 46.8722 55.7724 46.499 56.2328 46.499V64.499C65.7136 64.499 73.3992 56.8134 73.3992 47.3326H55.3992ZM56.2328 48.1662C55.7724 48.1662 55.3992 47.793 55.3992 47.3326H73.3992C73.3992 37.8519 65.7136 30.1662 56.2328 30.1662V48.1662ZM57.0664 47.3326C57.0664 47.793 56.6932 48.1662 56.2328 48.1662V30.1662C46.7521 30.1662 39.0664 37.8519 39.0664 47.3326H57.0664ZM56.2328 46.499C56.6932 46.499 57.0664 46.8722 57.0664 47.3326H39.0664C39.0664 56.8134 46.7521 64.499 56.2328 64.499V46.499ZM50.4993 47.3323C50.4993 44.1658 53.0663 41.5989 56.2328 41.5989V59.5989C63.0074 59.5989 68.4993 54.107 68.4993 47.3323H50.4993ZM56.2328 53.0658C53.0663 53.0658 50.4993 50.4988 50.4993 47.3323H68.4993C68.4993 40.5577 63.0074 35.0658 56.2328 35.0658V53.0658ZM61.9662 47.3323C61.9662 50.4988 59.3993 53.0658 56.2328 53.0658V35.0658C49.4581 35.0658 43.9662 40.5577 43.9662 47.3323H61.9662ZM56.2328 41.5989C59.3993 41.5989 61.9662 44.1658 61.9662 47.3323H43.9662C43.9662 54.107 49.4581 59.5989 56.2328 59.5989V41.5989Z" fill="#583430" mask="url(#path-8-inside-3_191_1162)"/>
<mask id="path-10-inside-4_191_1162" fill="white">
<path fill-rule="evenodd" clip-rule="evenodd" d="M77.4652 47.3328C81.9754 47.3328 85.6316 43.6765 85.6316 39.1663C85.6316 34.6562 81.9754 30.9999 77.4652 30.9999C72.9551 30.9999 69.2988 34.6562 69.2988 39.1663C69.2988 43.6765 72.9551 47.3328 77.4652 47.3328ZM77.4653 42.4327C79.2694 42.4327 80.7318 40.9702 80.7318 39.1662C80.7318 37.3621 79.2694 35.8996 77.4653 35.8996C75.6612 35.8996 74.1987 37.3621 74.1987 39.1662C74.1987 40.9702 75.6612 42.4327 77.4653 42.4327Z"/>
</mask>
<path fill-rule="evenodd" clip-rule="evenodd" d="M77.4652 47.3328C81.9754 47.3328 85.6316 43.6765 85.6316 39.1663C85.6316 34.6562 81.9754 30.9999 77.4652 30.9999C72.9551 30.9999 69.2988 34.6562 69.2988 39.1663C69.2988 43.6765 72.9551 47.3328 77.4652 47.3328ZM77.4653 42.4327C79.2694 42.4327 80.7318 40.9702 80.7318 39.1662C80.7318 37.3621 79.2694 35.8996 77.4653 35.8996C75.6612 35.8996 74.1987 37.3621 74.1987 39.1662C74.1987 40.9702 75.6612 42.4327 77.4653 42.4327Z" fill="#583430"/>
<path d="M76.6316 39.1663C76.6316 38.706 77.0049 38.3328 77.4652 38.3328V56.3328C86.946 56.3328 94.6316 48.6471 94.6316 39.1663H76.6316ZM77.4652 39.9999C77.0049 39.9999 76.6316 39.6267 76.6316 39.1663H94.6316C94.6316 29.6856 86.946 21.9999 77.4652 21.9999V39.9999ZM78.2988 39.1663C78.2988 39.6267 77.9256 39.9999 77.4652 39.9999V21.9999C67.9845 21.9999 60.2988 29.6856 60.2988 39.1663H78.2988ZM77.4652 38.3328C77.9256 38.3328 78.2988 38.706 78.2988 39.1663H60.2988C60.2988 48.6471 67.9845 56.3328 77.4652 56.3328V38.3328ZM71.7318 39.1662C71.7318 35.9997 74.2988 33.4327 77.4653 33.4327V51.4327C84.2399 51.4327 89.7318 45.9408 89.7318 39.1662H71.7318ZM77.4653 44.8996C74.2988 44.8996 71.7318 42.3327 71.7318 39.1662H89.7318C89.7318 32.3915 84.2399 26.8996 77.4653 26.8996V44.8996ZM83.1987 39.1662C83.1987 42.3327 80.6318 44.8996 77.4653 44.8996V26.8996C70.6907 26.8996 65.1987 32.3915 65.1987 39.1662H83.1987ZM77.4653 33.4327C80.6318 33.4327 83.1987 35.9997 83.1987 39.1662H65.1987C65.1987 45.9408 70.6906 51.4327 77.4653 51.4327V33.4327Z" fill="#583430" mask="url(#path-10-inside-4_191_1162)"/>
<mask id="path-12-inside-5_191_1162" fill="white">
<path fill-rule="evenodd" clip-rule="evenodd" d="M43.1664 71.832C47.6766 71.832 51.3328 68.1757 51.3328 63.6656C51.3328 59.1554 47.6766 55.4991 43.1664 55.4991C38.6562 55.4991 35 59.1554 35 63.6656C35 68.1757 38.6562 71.832 43.1664 71.832ZM43.1666 66.9321C44.9706 66.9321 46.4331 65.4696 46.4331 63.6655C46.4331 61.8615 44.9706 60.399 43.1666 60.399C41.3625 60.399 39.9 61.8615 39.9 63.6655C39.9 65.4696 41.3625 66.9321 43.1666 66.9321Z"/>
</mask>
<path fill-rule="evenodd" clip-rule="evenodd" d="M43.1664 71.832C47.6766 71.832 51.3328 68.1757 51.3328 63.6656C51.3328 59.1554 47.6766 55.4991 43.1664 55.4991C38.6562 55.4991 35 59.1554 35 63.6656C35 68.1757 38.6562 71.832 43.1664 71.832ZM43.1666 66.9321C44.9706 66.9321 46.4331 65.4696 46.4331 63.6655C46.4331 61.8615 44.9706 60.399 43.1666 60.399C41.3625 60.399 39.9 61.8615 39.9 63.6655C39.9 65.4696 41.3625 66.9321 43.1666 66.9321Z" fill="#583430"/>
<path d="M42.3328 63.6656C42.3328 63.2052 42.706 62.832 43.1664 62.832V80.832C52.6472 80.832 60.3328 73.1463 60.3328 63.6656H42.3328ZM43.1664 64.4991C42.706 64.4991 42.3328 64.1259 42.3328 63.6656H60.3328C60.3328 54.1848 52.6472 46.4991 43.1664 46.4991V64.4991ZM44 63.6656C44 64.1259 43.6268 64.4991 43.1664 64.4991V46.4991C33.6857 46.4991 26 54.1848 26 63.6656H44ZM43.1664 62.832C43.6268 62.832 44 63.2052 44 63.6656H26C26 73.1463 33.6857 80.832 43.1664 80.832V62.832ZM37.4331 63.6655C37.4331 60.499 40.0001 57.9321 43.1666 57.9321V75.9321C49.9412 75.9321 55.4331 70.4402 55.4331 63.6655H37.4331ZM43.1666 69.399C40.0001 69.399 37.4331 66.832 37.4331 63.6655H55.4331C55.4331 56.8909 49.9412 51.399 43.1666 51.399V69.399ZM48.9 63.6655C48.9 66.832 46.333 69.399 43.1666 69.399V51.399C36.3919 51.399 30.9 56.8909 30.9 63.6655H48.9ZM43.1666 57.9321C46.333 57.9321 48.9 60.499 48.9 63.6655H30.9C30.9 70.4402 36.3919 75.9321 43.1666 75.9321V57.9321Z" fill="#583430" mask="url(#path-12-inside-5_191_1162)"/>
<path d="M79.915 53.8658L79.915 60.399" stroke="#583430" stroke-width="4" stroke-linecap="round"/>
</svg>
