<svg width="56" height="47" viewBox="0 0 56 47" fill="none" xmlns="http://www.w3.org/2000/svg">
<path d="M27.5294 45V38.1176C25.9412 33.3529 20.1176 29.6471 13.2353 24.8824M31.2353 33.3529C33.5732 29.6083 36 27 40.7647 24.3529M28.0588 27C26.4706 23.8235 25.9412 23.2941 21.1765 19.5882" stroke="white" stroke-width="4" stroke-linecap="round"/>
<path d="M37.5882 18C34.9412 20.1176 33.7765 21.9176 33.3529 22.7647" stroke="white" stroke-width="4" stroke-linecap="round"/>
<mask id="path-3-inside-1_293_259" fill="white">
<path fill-rule="evenodd" clip-rule="evenodd" d="M49.7647 24.3529C52.6886 24.3529 55.0588 21.9827 55.0588 19.0588C55.0588 16.135 52.6886 13.7647 49.7647 13.7647C46.8408 13.7647 44.4706 16.135 44.4706 19.0588C44.4706 21.9827 46.8408 24.3529 49.7647 24.3529ZM49.7647 21.1765C50.9343 21.1765 51.8824 20.2284 51.8824 19.0588C51.8824 17.8893 50.9343 16.9412 49.7647 16.9412C48.5952 16.9412 47.6471 17.8893 47.6471 19.0588C47.6471 20.2284 48.5952 21.1765 49.7647 21.1765Z"/>
</mask>
<path fill-rule="evenodd" clip-rule="evenodd" d="M49.7647 24.3529C52.6886 24.3529 55.0588 21.9827 55.0588 19.0588C55.0588 16.135 52.6886 13.7647 49.7647 13.7647C46.8408 13.7647 44.4706 16.135 44.4706 19.0588C44.4706 21.9827 46.8408 24.3529 49.7647 24.3529ZM49.7647 21.1765C50.9343 21.1765 51.8824 20.2284 51.8824 19.0588C51.8824 17.8893 50.9343 16.9412 49.7647 16.9412C48.5952 16.9412 47.6471 17.8893 47.6471 19.0588C47.6471 20.2284 48.5952 21.1765 49.7647 21.1765Z" fill="white"/>
<path d="M46.0588 19.0588C46.0588 17.0121 47.718 15.3529 49.7647 15.3529V33.3529C57.6591 33.3529 64.0588 26.9532 64.0588 19.0588H46.0588ZM49.7647 22.7647C47.718 22.7647 46.0588 21.1055 46.0588 19.0588H64.0588C64.0588 11.1644 57.6591 4.76471 49.7647 4.76471V22.7647ZM53.4706 19.0588C53.4706 21.1055 51.8114 22.7647 49.7647 22.7647V4.76471C41.8703 4.76471 35.4706 11.1644 35.4706 19.0588H53.4706ZM49.7647 15.3529C51.8114 15.3529 53.4706 17.0121 53.4706 19.0588H35.4706C35.4706 26.9532 41.8703 33.3529 49.7647 33.3529V15.3529ZM42.8824 19.0588C42.8824 15.2578 45.9637 12.1765 49.7647 12.1765V30.1765C55.9048 30.1765 60.8824 25.1989 60.8824 19.0588H42.8824ZM49.7647 25.9412C45.9637 25.9412 42.8824 22.8598 42.8824 19.0588H60.8824C60.8824 12.9187 55.9048 7.94117 49.7647 7.94117V25.9412ZM56.6471 19.0588C56.6471 22.8598 53.5657 25.9412 49.7647 25.9412V7.94117C43.6246 7.94117 38.6471 12.9187 38.6471 19.0588H56.6471ZM49.7647 12.1765C53.5657 12.1765 56.6471 15.2578 56.6471 19.0588H38.6471C38.6471 25.1989 43.6246 30.1765 49.7647 30.1765V12.1765Z" fill="white" mask="url(#path-3-inside-1_293_259)"/>
<mask id="path-5-inside-2_293_259" fill="white">
<path fill-rule="evenodd" clip-rule="evenodd" d="M41.2941 13.7647C44.218 13.7647 46.5882 11.3944 46.5882 8.47059C46.5882 5.54673 44.218 3.17647 41.2941 3.17647C38.3703 3.17647 36 5.54673 36 8.47059C36 11.3944 38.3703 13.7647 41.2941 13.7647ZM41.2941 10.5882C42.4637 10.5882 43.4118 9.64012 43.4118 8.47058C43.4118 7.30103 42.4637 6.35293 41.2941 6.35293C40.1246 6.35293 39.1765 7.30103 39.1765 8.47058C39.1765 9.64012 40.1246 10.5882 41.2941 10.5882Z"/>
</mask>
<path fill-rule="evenodd" clip-rule="evenodd" d="M41.2941 13.7647C44.218 13.7647 46.5882 11.3944 46.5882 8.47059C46.5882 5.54673 44.218 3.17647 41.2941 3.17647C38.3703 3.17647 36 5.54673 36 8.47059C36 11.3944 38.3703 13.7647 41.2941 13.7647ZM41.2941 10.5882C42.4637 10.5882 43.4118 9.64012 43.4118 8.47058C43.4118 7.30103 42.4637 6.35293 41.2941 6.35293C40.1246 6.35293 39.1765 7.30103 39.1765 8.47058C39.1765 9.64012 40.1246 10.5882 41.2941 10.5882Z" fill="white"/>
<path d="M37.5882 8.47059C37.5882 6.42389 39.2474 4.76471 41.2941 4.76471V22.7647C49.1885 22.7647 55.5882 16.365 55.5882 8.47059H37.5882ZM41.2941 12.1765C39.2474 12.1765 37.5882 10.5173 37.5882 8.47059H55.5882C55.5882 0.576165 49.1885 -5.82353 41.2941 -5.82353V12.1765ZM45 8.47059C45 10.5173 43.3408 12.1765 41.2941 12.1765V-5.82353C33.3997 -5.82353 27 0.576165 27 8.47059H45ZM41.2941 4.76471C43.3408 4.76471 45 6.42389 45 8.47059H27C27 16.365 33.3997 22.7647 41.2941 22.7647V4.76471ZM34.4118 8.47058C34.4118 4.66956 37.4931 1.58822 41.2941 1.58822V19.5882C47.4342 19.5882 52.4118 14.6107 52.4118 8.47058H34.4118ZM41.2941 15.3529C37.4931 15.3529 34.4118 12.2716 34.4118 8.47058H52.4118C52.4118 2.33047 47.4342 -2.64707 41.2941 -2.64707V15.3529ZM48.1765 8.47058C48.1765 12.2716 45.0951 15.3529 41.2941 15.3529V-2.64707C35.154 -2.64707 30.1765 2.33047 30.1765 8.47058H48.1765ZM41.2941 1.58822C45.0951 1.58822 48.1765 4.66956 48.1765 8.47058H30.1765C30.1765 14.6107 35.154 19.5882 41.2941 19.5882V1.58822Z" fill="white" mask="url(#path-5-inside-2_293_259)"/>
<mask id="path-7-inside-3_293_259" fill="white">
<path fill-rule="evenodd" clip-rule="evenodd" d="M13.7647 15.8824C16.6886 15.8824 19.0588 13.5121 19.0588 10.5882C19.0588 7.66437 16.6886 5.29412 13.7647 5.29412C10.8408 5.29412 8.47059 7.66437 8.47059 10.5882C8.47059 13.5121 10.8408 15.8824 13.7647 15.8824ZM13.7647 12.7059C14.9343 12.7059 15.8824 11.7578 15.8824 10.5882C15.8824 9.41868 14.9343 8.47058 13.7647 8.47058C12.5952 8.47058 11.6471 9.41868 11.6471 10.5882C11.6471 11.7578 12.5952 12.7059 13.7647 12.7059Z"/>
</mask>
<path fill-rule="evenodd" clip-rule="evenodd" d="M13.7647 15.8824C16.6886 15.8824 19.0588 13.5121 19.0588 10.5882C19.0588 7.66437 16.6886 5.29412 13.7647 5.29412C10.8408 5.29412 8.47059 7.66437 8.47059 10.5882C8.47059 13.5121 10.8408 15.8824 13.7647 15.8824ZM13.7647 12.7059C14.9343 12.7059 15.8824 11.7578 15.8824 10.5882C15.8824 9.41868 14.9343 8.47058 13.7647 8.47058C12.5952 8.47058 11.6471 9.41868 11.6471 10.5882C11.6471 11.7578 12.5952 12.7059 13.7647 12.7059Z" fill="white"/>
<path d="M10.0588 10.5882C10.0588 8.54153 11.718 6.88235 13.7647 6.88235V24.8824C21.6591 24.8824 28.0588 18.4827 28.0588 10.5882H10.0588ZM13.7647 14.2941C11.718 14.2941 10.0588 12.6349 10.0588 10.5882H28.0588C28.0588 2.69381 21.6591 -3.70588 13.7647 -3.70588V14.2941ZM17.4706 10.5882C17.4706 12.6349 15.8114 14.2941 13.7647 14.2941V-3.70588C5.87028 -3.70588 -0.529412 2.69381 -0.529412 10.5882H17.4706ZM13.7647 6.88235C15.8114 6.88235 17.4706 8.54153 17.4706 10.5882H-0.529412C-0.529412 18.4827 5.87028 24.8824 13.7647 24.8824V6.88235ZM6.88237 10.5882C6.88237 6.78721 9.9637 3.70587 13.7647 3.70587V21.7059C19.9048 21.7059 24.8824 16.7283 24.8824 10.5882H6.88237ZM13.7647 17.4706C9.9637 17.4706 6.88237 14.3892 6.88237 10.5882H24.8824C24.8824 4.44812 19.9048 -0.529423 13.7647 -0.529423V17.4706ZM20.6471 10.5882C20.6471 14.3892 17.5657 17.4706 13.7647 17.4706V-0.529423C7.62461 -0.529423 2.64707 4.44812 2.64707 10.5882H20.6471ZM13.7647 3.70587C17.5657 3.70587 20.6471 6.78721 20.6471 10.5882H2.64707C2.64707 16.7283 7.62461 21.7059 13.7647 21.7059V3.70587Z" fill="white" mask="url(#path-7-inside-3_293_259)"/>
<mask id="path-9-inside-4_293_259" fill="white">
<path fill-rule="evenodd" clip-rule="evenodd" d="M27.5294 10.5882C30.4533 10.5882 32.8235 8.21798 32.8235 5.29412C32.8235 2.37026 30.4533 0 27.5294 0C24.6056 0 22.2353 2.37026 22.2353 5.29412C22.2353 8.21798 24.6056 10.5882 27.5294 10.5882ZM27.5294 7.41177C28.699 7.41177 29.6471 6.46366 29.6471 5.29412C29.6471 4.12457 28.699 3.17647 27.5294 3.17647C26.3599 3.17647 25.4118 4.12457 25.4118 5.29412C25.4118 6.46366 26.3599 7.41177 27.5294 7.41177Z"/>
</mask>
<path fill-rule="evenodd" clip-rule="evenodd" d="M27.5294 10.5882C30.4533 10.5882 32.8235 8.21798 32.8235 5.29412C32.8235 2.37026 30.4533 0 27.5294 0C24.6056 0 22.2353 2.37026 22.2353 5.29412C22.2353 8.21798 24.6056 10.5882 27.5294 10.5882ZM27.5294 7.41177C28.699 7.41177 29.6471 6.46366 29.6471 5.29412C29.6471 4.12457 28.699 3.17647 27.5294 3.17647C26.3599 3.17647 25.4118 4.12457 25.4118 5.29412C25.4118 6.46366 26.3599 7.41177 27.5294 7.41177Z" fill="white"/>
<path d="M23.8235 5.29412C23.8235 3.24741 25.4827 1.58823 27.5294 1.58823V19.5882C35.4238 19.5882 41.8235 13.1885 41.8235 5.29412H23.8235ZM27.5294 9C25.4827 9 23.8235 7.34082 23.8235 5.29412H41.8235C41.8235 -2.60031 35.4238 -9 27.5294 -9V9ZM31.2353 5.29412C31.2353 7.34082 29.5761 9 27.5294 9V-9C19.635 -9 13.2353 -2.60031 13.2353 5.29412H31.2353ZM27.5294 1.58823C29.5761 1.58823 31.2353 3.24742 31.2353 5.29412H13.2353C13.2353 13.1885 19.635 19.5882 27.5294 19.5882V1.58823ZM20.6471 5.29412C20.6471 1.4931 23.7284 -1.58823 27.5294 -1.58823V16.4118C33.6695 16.4118 38.6471 11.4342 38.6471 5.29412H20.6471ZM27.5294 12.1765C23.7284 12.1765 20.6471 9.09514 20.6471 5.29412H38.6471C38.6471 -0.84599 33.6695 -5.82353 27.5294 -5.82353V12.1765ZM34.4118 5.29412C34.4118 9.09514 31.3304 12.1765 27.5294 12.1765V-5.82353C21.3893 -5.82353 16.4118 -0.84599 16.4118 5.29412H34.4118ZM27.5294 -1.58823C31.3304 -1.58823 34.4118 1.4931 34.4118 5.29412H16.4118C16.4118 11.4342 21.3893 16.4118 27.5294 16.4118V-1.58823Z" fill="white" mask="url(#path-9-inside-4_293_259)"/>
<mask id="path-11-inside-5_293_259" fill="white">
<path fill-rule="evenodd" clip-rule="evenodd" d="M5.29412 26.4706C8.21798 26.4706 10.5882 24.1003 10.5882 21.1765C10.5882 18.2526 8.21798 15.8824 5.29412 15.8824C2.37026 15.8824 0 18.2526 0 21.1765C0 24.1003 2.37026 26.4706 5.29412 26.4706ZM5.29412 23.2941C6.46367 23.2941 7.41177 22.346 7.41177 21.1765C7.41177 20.0069 6.46367 19.0588 5.29412 19.0588C4.12458 19.0588 3.17648 20.0069 3.17648 21.1765C3.17648 22.346 4.12458 23.2941 5.29412 23.2941Z"/>
</mask>
<path fill-rule="evenodd" clip-rule="evenodd" d="M5.29412 26.4706C8.21798 26.4706 10.5882 24.1003 10.5882 21.1765C10.5882 18.2526 8.21798 15.8824 5.29412 15.8824C2.37026 15.8824 0 18.2526 0 21.1765C0 24.1003 2.37026 26.4706 5.29412 26.4706ZM5.29412 23.2941C6.46367 23.2941 7.41177 22.346 7.41177 21.1765C7.41177 20.0069 6.46367 19.0588 5.29412 19.0588C4.12458 19.0588 3.17648 20.0069 3.17648 21.1765C3.17648 22.346 4.12458 23.2941 5.29412 23.2941Z" fill="white"/>
<path d="M1.58823 21.1765C1.58823 19.1298 3.24741 17.4706 5.29412 17.4706V35.4706C13.1885 35.4706 19.5882 29.0709 19.5882 21.1765H1.58823ZM5.29412 24.8824C3.24742 24.8824 1.58823 23.2232 1.58823 21.1765H19.5882C19.5882 13.282 13.1885 6.88235 5.29412 6.88235V24.8824ZM9 21.1765C9 23.2232 7.34082 24.8824 5.29412 24.8824V6.88235C-2.60031 6.88235 -9 13.282 -9 21.1765H9ZM5.29412 17.4706C7.34082 17.4706 9 19.1298 9 21.1765H-9C-9 29.0709 -2.60031 35.4706 5.29412 35.4706V17.4706ZM-1.58823 21.1765C-1.58823 17.3755 1.49311 14.2941 5.29412 14.2941V32.2941C11.4342 32.2941 16.4118 27.3166 16.4118 21.1765H-1.58823ZM5.29412 28.0588C1.49311 28.0588 -1.58823 24.9775 -1.58823 21.1765H16.4118C16.4118 15.0364 11.4342 10.0588 5.29412 10.0588V28.0588ZM12.1765 21.1765C12.1765 24.9775 9.09514 28.0588 5.29412 28.0588V10.0588C-0.845984 10.0588 -5.82352 15.0364 -5.82352 21.1765H12.1765ZM5.29412 14.2941C9.09514 14.2941 12.1765 17.3755 12.1765 21.1765H-5.82352C-5.82352 27.3166 -0.845984 32.2941 5.29412 32.2941V14.2941Z" fill="white" mask="url(#path-11-inside-5_293_259)"/>
<path d="M29.1176 14.8235L29.1176 19.0588" stroke="white" stroke-width="4" stroke-linecap="round"/>
</svg>
