<svg width="85" height="72" viewBox="0 0 85 72" fill="none" xmlns="http://www.w3.org/2000/svg">
<path d="M42.4653 69.4146V58.7982C40.0154 51.4485 31.0323 45.732 20.416 38.3822M48.1818 51.4485C51.7881 45.6722 55.5316 41.6488 62.8813 37.5656M43.282 41.6488C40.832 36.7489 40.0154 35.9323 32.6656 30.2158" stroke="#583430" stroke-width="4" stroke-linecap="round"/>
<path d="M57.9814 27.7656C53.8982 31.0322 52.1016 33.8088 51.4482 35.1154" stroke="#583430" stroke-width="4" stroke-linecap="round"/>
<mask id="path-3-inside-1_68_1001" fill="white">
<path fill-rule="evenodd" clip-rule="evenodd" d="M76.765 37.5652C81.2752 37.5652 84.9314 33.909 84.9314 29.3988C84.9314 24.8886 81.2752 21.2324 76.765 21.2324C72.2549 21.2324 68.5986 24.8886 68.5986 29.3988C68.5986 33.909 72.2549 37.5652 76.765 37.5652ZM76.765 32.6653C78.5691 32.6653 80.0315 31.2028 80.0315 29.3987C80.0315 27.5947 78.5691 26.1322 76.765 26.1322C74.9609 26.1322 73.4984 27.5947 73.4984 29.3987C73.4984 31.2028 74.9609 32.6653 76.765 32.6653Z"/>
</mask>
<path fill-rule="evenodd" clip-rule="evenodd" d="M76.765 37.5652C81.2752 37.5652 84.9314 33.909 84.9314 29.3988C84.9314 24.8886 81.2752 21.2324 76.765 21.2324C72.2549 21.2324 68.5986 24.8886 68.5986 29.3988C68.5986 33.909 72.2549 37.5652 76.765 37.5652ZM76.765 32.6653C78.5691 32.6653 80.0315 31.2028 80.0315 29.3987C80.0315 27.5947 78.5691 26.1322 76.765 26.1322C74.9609 26.1322 73.4984 27.5947 73.4984 29.3987C73.4984 31.2028 74.9609 32.6653 76.765 32.6653Z" fill="#583430"/>
<path d="M75.9314 29.3988C75.9314 28.9384 76.3047 28.5652 76.765 28.5652V46.5652C86.2458 46.5652 93.9314 38.8796 93.9314 29.3988H75.9314ZM76.765 30.2324C76.3047 30.2324 75.9314 29.8592 75.9314 29.3988H93.9314C93.9314 19.9181 86.2458 12.2324 76.765 12.2324V30.2324ZM77.5986 29.3988C77.5986 29.8592 77.2254 30.2324 76.765 30.2324V12.2324C67.2843 12.2324 59.5986 19.9181 59.5986 29.3988H77.5986ZM76.765 28.5652C77.2254 28.5652 77.5986 28.9384 77.5986 29.3988H59.5986C59.5986 38.8796 67.2843 46.5652 76.765 46.5652V28.5652ZM71.0315 29.3987C71.0315 26.2322 73.5985 23.6653 76.765 23.6653V41.6653C83.5396 41.6653 89.0315 36.1734 89.0315 29.3987H71.0315ZM76.765 35.1322C73.5985 35.1322 71.0315 32.5652 71.0315 29.3987H89.0315C89.0315 22.6241 83.5396 17.1322 76.765 17.1322V35.1322ZM82.4984 29.3987C82.4984 32.5652 79.9315 35.1322 76.765 35.1322V17.1322C69.9903 17.1322 64.4984 22.6241 64.4984 29.3987H82.4984ZM76.765 23.6653C79.9315 23.6653 82.4984 26.2322 82.4984 29.3987H64.4984C64.4984 36.1734 69.9903 41.6653 76.765 41.6653V23.6653Z" fill="#583430" mask="url(#path-3-inside-1_68_1001)"/>
<mask id="path-5-inside-2_68_1001" fill="white">
<path fill-rule="evenodd" clip-rule="evenodd" d="M63.6977 21.2326C68.2078 21.2326 71.8641 17.5764 71.8641 13.0662C71.8641 8.55601 68.2078 4.89978 63.6977 4.89978C59.1875 4.89978 55.5312 8.55601 55.5312 13.0662C55.5312 17.5764 59.1875 21.2326 63.6977 21.2326ZM63.698 16.3329C65.5021 16.3329 66.9646 14.8704 66.9646 13.0663C66.9646 11.2622 65.5021 9.79974 63.698 9.79974C61.8939 9.79974 60.4315 11.2622 60.4315 13.0663C60.4315 14.8704 61.8939 16.3329 63.698 16.3329Z"/>
</mask>
<path fill-rule="evenodd" clip-rule="evenodd" d="M63.6977 21.2326C68.2078 21.2326 71.8641 17.5764 71.8641 13.0662C71.8641 8.55601 68.2078 4.89978 63.6977 4.89978C59.1875 4.89978 55.5312 8.55601 55.5312 13.0662C55.5312 17.5764 59.1875 21.2326 63.6977 21.2326ZM63.698 16.3329C65.5021 16.3329 66.9646 14.8704 66.9646 13.0663C66.9646 11.2622 65.5021 9.79974 63.698 9.79974C61.8939 9.79974 60.4315 11.2622 60.4315 13.0663C60.4315 14.8704 61.8939 16.3329 63.698 16.3329Z" fill="#583430"/>
<path d="M62.8641 13.0662C62.8641 12.6058 63.2373 12.2326 63.6977 12.2326V30.2326C73.1784 30.2326 80.8641 22.5469 80.8641 13.0662H62.8641ZM63.6977 13.8998C63.2373 13.8998 62.8641 13.5266 62.8641 13.0662H80.8641C80.8641 3.58544 73.1784 -4.10022 63.6977 -4.10022V13.8998ZM64.5312 13.0662C64.5312 13.5266 64.158 13.8998 63.6977 13.8998V-4.10022C54.2169 -4.10022 46.5312 3.58544 46.5312 13.0662H64.5312ZM63.6977 12.2326C64.158 12.2326 64.5312 12.6058 64.5312 13.0662H46.5312C46.5312 22.5469 54.2169 30.2326 63.6977 30.2326V12.2326ZM57.9646 13.0663C57.9646 9.89981 60.5315 7.33287 63.698 7.33287V25.3329C70.4727 25.3329 75.9646 19.8409 75.9646 13.0663H57.9646ZM63.698 18.7997C60.5315 18.7997 57.9646 16.2328 57.9646 13.0663H75.9646C75.9646 6.29167 70.4727 0.799739 63.698 0.799739V18.7997ZM69.4315 13.0663C69.4315 16.2328 66.8645 18.7997 63.698 18.7997V0.799739C56.9234 0.799739 51.4315 6.29167 51.4315 13.0663H69.4315ZM63.698 7.33287C66.8645 7.33287 69.4315 9.89981 69.4315 13.0663H51.4315C51.4315 19.8409 56.9234 25.3329 63.698 25.3329V7.33287Z" fill="#583430" mask="url(#path-5-inside-2_68_1001)"/>
<mask id="path-7-inside-3_68_1001" fill="white">
<path fill-rule="evenodd" clip-rule="evenodd" d="M21.2328 24.4991C25.743 24.4991 29.3992 20.8428 29.3992 16.3327C29.3992 11.8225 25.743 8.16626 21.2328 8.16626C16.7226 8.16626 13.0664 11.8225 13.0664 16.3327C13.0664 20.8428 16.7226 24.4991 21.2328 24.4991ZM21.2328 19.5989C23.0369 19.5989 24.4993 18.1365 24.4993 16.3324C24.4993 14.5283 23.0369 13.0658 21.2328 13.0658C19.4287 13.0658 17.9662 14.5283 17.9662 16.3324C17.9662 18.1365 19.4287 19.5989 21.2328 19.5989Z"/>
</mask>
<path fill-rule="evenodd" clip-rule="evenodd" d="M21.2328 24.4991C25.743 24.4991 29.3992 20.8428 29.3992 16.3327C29.3992 11.8225 25.743 8.16626 21.2328 8.16626C16.7226 8.16626 13.0664 11.8225 13.0664 16.3327C13.0664 20.8428 16.7226 24.4991 21.2328 24.4991ZM21.2328 19.5989C23.0369 19.5989 24.4993 18.1365 24.4993 16.3324C24.4993 14.5283 23.0369 13.0658 21.2328 13.0658C19.4287 13.0658 17.9662 14.5283 17.9662 16.3324C17.9662 18.1365 19.4287 19.5989 21.2328 19.5989Z" fill="#583430"/>
<path d="M20.3992 16.3327C20.3992 15.8723 20.7724 15.4991 21.2328 15.4991V33.4991C30.7136 33.4991 38.3992 25.8134 38.3992 16.3327H20.3992ZM21.2328 17.1663C20.7724 17.1663 20.3992 16.793 20.3992 16.3327H38.3992C38.3992 6.85192 30.7136 -0.83374 21.2328 -0.83374V17.1663ZM22.0664 16.3327C22.0664 16.793 21.6932 17.1663 21.2328 17.1663V-0.83374C11.7521 -0.83374 4.06641 6.85192 4.06641 16.3327H22.0664ZM21.2328 15.4991C21.6932 15.4991 22.0664 15.8723 22.0664 16.3327H4.06641C4.06641 25.8134 11.7521 33.4991 21.2328 33.4991V15.4991ZM15.4993 16.3324C15.4993 13.1659 18.0663 10.5989 21.2328 10.5989V28.5989C28.0074 28.5989 33.4993 23.107 33.4993 16.3324H15.4993ZM21.2328 22.0658C18.0663 22.0658 15.4993 19.4989 15.4993 16.3324H33.4993C33.4993 9.55775 28.0074 4.06582 21.2328 4.06582V22.0658ZM26.9662 16.3324C26.9662 19.4989 24.3993 22.0658 21.2328 22.0658V4.06582C14.4581 4.06582 8.96622 9.55775 8.96622 16.3324H26.9662ZM21.2328 10.5989C24.3993 10.5989 26.9662 13.1659 26.9662 16.3324H8.96622C8.96622 23.107 14.4581 28.5989 21.2328 28.5989V10.5989Z" fill="#583430" mask="url(#path-7-inside-3_68_1001)"/>
<mask id="path-9-inside-4_68_1001" fill="white">
<path fill-rule="evenodd" clip-rule="evenodd" d="M42.4652 16.3328C46.9754 16.3328 50.6316 12.6766 50.6316 8.16641C50.6316 3.65623 46.9754 0 42.4652 0C37.9551 0 34.2988 3.65623 34.2988 8.16641C34.2988 12.6766 37.9551 16.3328 42.4652 16.3328ZM42.4653 11.4328C44.2694 11.4328 45.7318 9.9703 45.7318 8.16623C45.7318 6.36216 44.2694 4.89967 42.4653 4.89967C40.6612 4.89967 39.1987 6.36216 39.1987 8.16623C39.1987 9.9703 40.6612 11.4328 42.4653 11.4328Z"/>
</mask>
<path fill-rule="evenodd" clip-rule="evenodd" d="M42.4652 16.3328C46.9754 16.3328 50.6316 12.6766 50.6316 8.16641C50.6316 3.65623 46.9754 0 42.4652 0C37.9551 0 34.2988 3.65623 34.2988 8.16641C34.2988 12.6766 37.9551 16.3328 42.4652 16.3328ZM42.4653 11.4328C44.2694 11.4328 45.7318 9.9703 45.7318 8.16623C45.7318 6.36216 44.2694 4.89967 42.4653 4.89967C40.6612 4.89967 39.1987 6.36216 39.1987 8.16623C39.1987 9.9703 40.6612 11.4328 42.4653 11.4328Z" fill="#583430"/>
<path d="M41.6316 8.16641C41.6316 7.70603 42.0049 7.33282 42.4652 7.33282V25.3328C51.946 25.3328 59.6316 17.6472 59.6316 8.16641H41.6316ZM42.4652 9C42.0049 9 41.6316 8.62679 41.6316 8.16641H59.6316C59.6316 -1.31434 51.946 -9 42.4652 -9V9ZM43.2988 8.16641C43.2988 8.62679 42.9256 9 42.4652 9V-9C32.9845 -9 25.2988 -1.31434 25.2988 8.16641H43.2988ZM42.4652 7.33282C42.9256 7.33282 43.2988 7.70603 43.2988 8.16641H25.2988C25.2988 17.6472 32.9845 25.3328 42.4652 25.3328V7.33282ZM36.7318 8.16623C36.7318 4.99974 39.2988 2.43279 42.4653 2.43279V20.4328C49.2399 20.4328 54.7318 14.9409 54.7318 8.16623H36.7318ZM42.4653 13.8997C39.2988 13.8997 36.7318 11.3327 36.7318 8.16623H54.7318C54.7318 1.39159 49.2399 -4.10033 42.4653 -4.10033V13.8997ZM48.1987 8.16623C48.1987 11.3327 45.6318 13.8997 42.4653 13.8997V-4.10033C35.6907 -4.10033 30.1987 1.39159 30.1987 8.16623H48.1987ZM42.4653 2.43279C45.6318 2.43279 48.1987 4.99974 48.1987 8.16623H30.1987C30.1987 14.9409 35.6906 20.4328 42.4653 20.4328V2.43279Z" fill="#583430" mask="url(#path-9-inside-4_68_1001)"/>
<mask id="path-11-inside-5_68_1001" fill="white">
<path fill-rule="evenodd" clip-rule="evenodd" d="M8.16641 40.832C12.6766 40.832 16.3328 37.1757 16.3328 32.6656C16.3328 28.1554 12.6766 24.4991 8.16641 24.4991C3.65623 24.4991 0 28.1554 0 32.6656C0 37.1757 3.65623 40.832 8.16641 40.832ZM8.16656 35.9321C9.97063 35.9321 11.4331 34.4696 11.4331 32.6655C11.4331 30.8615 9.97063 29.399 8.16656 29.399C6.36248 29.399 4.89999 30.8615 4.89999 32.6655C4.89999 34.4696 6.36248 35.9321 8.16656 35.9321Z"/>
</mask>
<path fill-rule="evenodd" clip-rule="evenodd" d="M8.16641 40.832C12.6766 40.832 16.3328 37.1757 16.3328 32.6656C16.3328 28.1554 12.6766 24.4991 8.16641 24.4991C3.65623 24.4991 0 28.1554 0 32.6656C0 37.1757 3.65623 40.832 8.16641 40.832ZM8.16656 35.9321C9.97063 35.9321 11.4331 34.4696 11.4331 32.6655C11.4331 30.8615 9.97063 29.399 8.16656 29.399C6.36248 29.399 4.89999 30.8615 4.89999 32.6655C4.89999 34.4696 6.36248 35.9321 8.16656 35.9321Z" fill="#583430"/>
<path d="M7.33282 32.6656C7.33282 32.2052 7.70603 31.832 8.16641 31.832V49.832C17.6472 49.832 25.3328 42.1463 25.3328 32.6656H7.33282ZM8.16641 33.4991C7.70603 33.4991 7.33282 33.1259 7.33282 32.6656H25.3328C25.3328 23.1848 17.6472 15.4991 8.16641 15.4991V33.4991ZM9 32.6656C9 33.1259 8.62679 33.4991 8.16641 33.4991V15.4991C-1.31434 15.4991 -9 23.1848 -9 32.6656H9ZM8.16641 31.832C8.62679 31.832 9 32.2052 9 32.6656H-9C-9 42.1463 -1.31434 49.832 8.16641 49.832V31.832ZM2.43312 32.6655C2.43312 29.499 5.00007 26.9321 8.16656 26.9321V44.9321C14.9412 44.9321 20.4331 39.4402 20.4331 32.6655H2.43312ZM8.16656 38.399C5.00007 38.399 2.43312 35.832 2.43312 32.6655H20.4331C20.4331 25.8909 14.9412 20.399 8.16656 20.399V38.399ZM13.9 32.6655C13.9 35.832 11.333 38.399 8.16656 38.399V20.399C1.39192 20.399 -4.10001 25.8909 -4.10001 32.6655H13.9ZM8.16656 26.9321C11.333 26.9321 13.9 29.499 13.9 32.6655H-4.10001C-4.10001 39.4402 1.39192 44.9321 8.16656 44.9321V26.9321Z" fill="#583430" mask="url(#path-11-inside-5_68_1001)"/>
<path d="M44.915 22.8658L44.915 29.399" stroke="#583430" stroke-width="4" stroke-linecap="round"/>
</svg>
