<svg width="103" height="87" viewBox="0 0 103 87" fill="none" xmlns="http://www.w3.org/2000/svg">
<path d="M51.5 84.1822V71.3073C48.5288 62.3939 37.6347 55.4612 24.7598 46.5478M58.4326 62.3939C62.8062 55.3887 67.346 50.5093 76.2594 45.5574M52.4904 50.5093C49.5192 44.5671 48.5288 43.5767 39.6154 36.644" stroke="#FFDA5D" stroke-width="4" stroke-linecap="round"/>
<path d="M70.3166 33.6729C65.3647 37.6344 63.1859 41.0017 62.3936 42.5863" stroke="#FFDA5D" stroke-width="4" stroke-linecap="round"/>
<mask id="path-3-inside-1_345_1804" fill="white">
<path fill-rule="evenodd" clip-rule="evenodd" d="M93.0971 45.5571C98.5669 45.5571 103.001 41.123 103.001 35.6533C103.001 30.1836 98.5669 25.7495 93.0971 25.7495C87.6274 25.7495 83.1934 30.1836 83.1934 35.6533C83.1934 41.123 87.6274 45.5571 93.0971 45.5571ZM93.0966 39.6149C95.2845 39.6149 97.0581 37.8413 97.0581 35.6534C97.0581 33.4655 95.2845 31.6919 93.0966 31.6919C90.9087 31.6919 89.1351 33.4655 89.1351 35.6534C89.1351 37.8413 90.9087 39.6149 93.0966 39.6149Z"/>
</mask>
<path fill-rule="evenodd" clip-rule="evenodd" d="M93.0971 45.5571C98.5669 45.5571 103.001 41.123 103.001 35.6533C103.001 30.1836 98.5669 25.7495 93.0971 25.7495C87.6274 25.7495 83.1934 30.1836 83.1934 35.6533C83.1934 41.123 87.6274 45.5571 93.0971 45.5571ZM93.0966 39.6149C95.2845 39.6149 97.0581 37.8413 97.0581 35.6534C97.0581 33.4655 95.2845 31.6919 93.0966 31.6919C90.9087 31.6919 89.1351 33.4655 89.1351 35.6534C89.1351 37.8413 90.9087 39.6149 93.0966 39.6149Z" fill="#FFDA5D"/>
<path d="M94.0009 35.6533C94.0009 36.1524 93.5963 36.5571 93.0971 36.5571V54.5571C103.537 54.5571 112.001 46.0936 112.001 35.6533H94.0009ZM93.0971 34.7495C93.5963 34.7495 94.0009 35.1542 94.0009 35.6533H112.001C112.001 25.213 103.537 16.7495 93.0971 16.7495V34.7495ZM92.1934 35.6533C92.1934 35.1542 92.598 34.7495 93.0971 34.7495V16.7495C82.6569 16.7495 74.1934 25.213 74.1934 35.6533H92.1934ZM93.0971 36.5571C92.598 36.5571 92.1934 36.1524 92.1934 35.6533H74.1934C74.1934 46.0936 82.6569 54.5571 93.0971 54.5571V36.5571ZM88.0581 35.6534C88.0581 32.8707 90.3139 30.6149 93.0966 30.6149V48.6149C100.255 48.6149 106.058 42.8118 106.058 35.6534H88.0581ZM93.0966 40.6919C90.3139 40.6919 88.0581 38.436 88.0581 35.6534H106.058C106.058 28.4949 100.255 22.6919 93.0966 22.6919V40.6919ZM98.1351 35.6534C98.1351 38.436 95.8793 40.6919 93.0966 40.6919V22.6919C85.9382 22.6919 80.1351 28.4949 80.1351 35.6534H98.1351ZM93.0966 30.6149C95.8793 30.6149 98.1351 32.8707 98.1351 35.6534H80.1351C80.1351 42.8118 85.9382 48.6149 93.0966 48.6149V30.6149Z" fill="#FFDA5D" mask="url(#path-3-inside-1_345_1804)"/>
<mask id="path-5-inside-2_345_1804" fill="white">
<path fill-rule="evenodd" clip-rule="evenodd" d="M77.2485 25.7495C82.7182 25.7495 87.1523 21.3154 87.1523 15.8457C87.1523 10.376 82.7182 5.94189 77.2485 5.94189C71.7788 5.94189 67.3447 10.376 67.3447 15.8457C67.3447 21.3154 71.7788 25.7495 77.2485 25.7495ZM77.2492 19.8073C79.4371 19.8073 81.2107 18.0336 81.2107 15.8458C81.2107 13.6579 79.4371 11.8842 77.2492 11.8842C75.0613 11.8842 73.2877 13.6579 73.2877 15.8458C73.2877 18.0336 75.0613 19.8073 77.2492 19.8073Z"/>
</mask>
<path fill-rule="evenodd" clip-rule="evenodd" d="M77.2485 25.7495C82.7182 25.7495 87.1523 21.3154 87.1523 15.8457C87.1523 10.376 82.7182 5.94189 77.2485 5.94189C71.7788 5.94189 67.3447 10.376 67.3447 15.8457C67.3447 21.3154 71.7788 25.7495 77.2485 25.7495ZM77.2492 19.8073C79.4371 19.8073 81.2107 18.0336 81.2107 15.8458C81.2107 13.6579 79.4371 11.8842 77.2492 11.8842C75.0613 11.8842 73.2877 13.6579 73.2877 15.8458C73.2877 18.0336 75.0613 19.8073 77.2492 19.8073Z" fill="#FFDA5D"/>
<path d="M78.1523 15.8457C78.1523 16.3448 77.7477 16.7495 77.2485 16.7495V34.7495C87.6888 34.7495 96.1523 26.286 96.1523 15.8457H78.1523ZM77.2485 14.9419C77.7477 14.9419 78.1523 15.3465 78.1523 15.8457H96.1523C96.1523 5.40541 87.6888 -3.05811 77.2485 -3.05811V14.9419ZM76.3447 15.8457C76.3447 15.3465 76.7494 14.9419 77.2485 14.9419V-3.05811C66.8082 -3.05811 58.3447 5.40541 58.3447 15.8457H76.3447ZM77.2485 16.7495C76.7494 16.7495 76.3447 16.3448 76.3447 15.8457H58.3447C58.3447 26.286 66.8082 34.7495 77.2485 34.7495V16.7495ZM72.2107 15.8458C72.2107 13.0631 74.4665 10.8073 77.2492 10.8073V28.8073C84.4076 28.8073 90.2107 23.0042 90.2107 15.8458H72.2107ZM77.2492 20.8842C74.4665 20.8842 72.2107 18.6284 72.2107 15.8458H90.2107C90.2107 8.6873 84.4076 2.88424 77.2492 2.88424V20.8842ZM82.2877 15.8458C82.2877 18.6284 80.0319 20.8842 77.2492 20.8842V2.88424C70.0907 2.88424 64.2877 8.6873 64.2877 15.8458H82.2877ZM77.2492 10.8073C80.0319 10.8073 82.2877 13.0631 82.2877 15.8458H64.2877C64.2877 23.0042 70.0907 28.8073 77.2492 28.8073V10.8073Z" fill="#FFDA5D" mask="url(#path-5-inside-2_345_1804)"/>
<mask id="path-7-inside-3_345_1804" fill="white">
<path fill-rule="evenodd" clip-rule="evenodd" d="M25.7495 29.7109C31.2192 29.7109 35.6533 25.2768 35.6533 19.8071C35.6533 14.3374 31.2192 9.90332 25.7495 9.90332C20.2798 9.90332 15.8457 14.3374 15.8457 19.8071C15.8457 25.2768 20.2798 29.7109 25.7495 29.7109ZM25.749 23.7681C27.9369 23.7681 29.7105 21.9945 29.7105 19.8066C29.7105 17.6187 27.9369 15.8451 25.749 15.8451C23.5611 15.8451 21.7875 17.6187 21.7875 19.8066C21.7875 21.9945 23.5611 23.7681 25.749 23.7681Z"/>
</mask>
<path fill-rule="evenodd" clip-rule="evenodd" d="M25.7495 29.7109C31.2192 29.7109 35.6533 25.2768 35.6533 19.8071C35.6533 14.3374 31.2192 9.90332 25.7495 9.90332C20.2798 9.90332 15.8457 14.3374 15.8457 19.8071C15.8457 25.2768 20.2798 29.7109 25.7495 29.7109ZM25.749 23.7681C27.9369 23.7681 29.7105 21.9945 29.7105 19.8066C29.7105 17.6187 27.9369 15.8451 25.749 15.8451C23.5611 15.8451 21.7875 17.6187 21.7875 19.8066C21.7875 21.9945 23.5611 23.7681 25.749 23.7681Z" fill="#FFDA5D"/>
<path d="M26.6533 19.8071C26.6533 20.3063 26.2486 20.7109 25.7495 20.7109V38.7109C36.1898 38.7109 44.6533 30.2474 44.6533 19.8071H26.6533ZM25.7495 18.9033C26.2486 18.9033 26.6533 19.308 26.6533 19.8071H44.6533C44.6533 9.36683 36.1898 0.90332 25.7495 0.90332V18.9033ZM24.8457 19.8071C24.8457 19.308 25.2503 18.9033 25.7495 18.9033V0.90332C15.3092 0.90332 6.8457 9.36683 6.8457 19.8071H24.8457ZM25.7495 20.7109C25.2503 20.7109 24.8457 20.3063 24.8457 19.8071H6.8457C6.8457 30.2474 15.3092 38.7109 25.7495 38.7109V20.7109ZM20.7105 19.8066C20.7105 17.0239 22.9663 14.7681 25.749 14.7681V32.7681C32.9074 32.7681 38.7105 26.965 38.7105 19.8066H20.7105ZM25.749 24.8451C22.9663 24.8451 20.7105 22.5893 20.7105 19.8066H38.7105C38.7105 12.6481 32.9074 6.84507 25.749 6.84507V24.8451ZM30.7875 19.8066C30.7875 22.5893 28.5316 24.8451 25.749 24.8451V6.84507C18.5905 6.84507 12.7875 12.6481 12.7875 19.8066H30.7875ZM25.749 14.7681C28.5316 14.7681 30.7875 17.0239 30.7875 19.8066H12.7875C12.7875 26.965 18.5905 32.7681 25.749 32.7681V14.7681Z" fill="#FFDA5D" mask="url(#path-7-inside-3_345_1804)"/>
<mask id="path-9-inside-4_345_1804" fill="white">
<path fill-rule="evenodd" clip-rule="evenodd" d="M51.4995 19.8076C56.9692 19.8076 61.4033 15.3735 61.4033 9.90379C61.4033 4.43408 56.9692 0 51.4995 0C46.0298 0 41.5957 4.43408 41.5957 9.90379C41.5957 15.3735 46.0298 19.8076 51.4995 19.8076ZM51.4991 13.8652C53.6869 13.8652 55.4606 12.0916 55.4606 9.90369C55.4606 7.7158 53.6869 5.94217 51.4991 5.94217C49.3112 5.94217 47.5376 7.7158 47.5376 9.90369C47.5376 12.0916 49.3112 13.8652 51.4991 13.8652Z"/>
</mask>
<path fill-rule="evenodd" clip-rule="evenodd" d="M51.4995 19.8076C56.9692 19.8076 61.4033 15.3735 61.4033 9.90379C61.4033 4.43408 56.9692 0 51.4995 0C46.0298 0 41.5957 4.43408 41.5957 9.90379C41.5957 15.3735 46.0298 19.8076 51.4995 19.8076ZM51.4991 13.8652C53.6869 13.8652 55.4606 12.0916 55.4606 9.90369C55.4606 7.7158 53.6869 5.94217 51.4991 5.94217C49.3112 5.94217 47.5376 7.7158 47.5376 9.90369C47.5376 12.0916 49.3112 13.8652 51.4991 13.8652Z" fill="#FFDA5D"/>
<path d="M52.4033 9.90379C52.4033 10.4029 51.9986 10.8076 51.4995 10.8076V28.8076C61.9398 28.8076 70.4033 20.3441 70.4033 9.90379H52.4033ZM51.4995 9C51.9986 9 52.4033 9.40464 52.4033 9.90379H70.4033C70.4033 -0.536486 61.9398 -9 51.4995 -9V9ZM50.5957 9.90379C50.5957 9.40464 51.0003 9 51.4995 9V-9C41.0592 -9 32.5957 -0.536486 32.5957 9.90379H50.5957ZM51.4995 10.8076C51.0003 10.8076 50.5957 10.4029 50.5957 9.90379H32.5957C32.5957 20.3441 41.0592 28.8076 51.4995 28.8076V10.8076ZM46.4606 9.90369C46.4606 7.12101 48.7164 4.8652 51.4991 4.8652V22.8652C58.6575 22.8652 64.4606 17.0621 64.4606 9.90369H46.4606ZM51.4991 14.9422C48.7164 14.9422 46.4606 12.6864 46.4606 9.90369H64.4606C64.4606 2.74524 58.6575 -3.05783 51.4991 -3.05783V14.9422ZM56.5376 9.90369C56.5376 12.6864 54.2817 14.9422 51.4991 14.9422V-3.05783C44.3406 -3.05783 38.5376 2.74524 38.5376 9.90369H56.5376ZM51.4991 4.8652C54.2817 4.8652 56.5376 7.12101 56.5376 9.90369H38.5376C38.5376 17.0621 44.3406 22.8652 51.4991 22.8652V4.8652Z" fill="#FFDA5D" mask="url(#path-9-inside-4_345_1804)"/>
<mask id="path-11-inside-5_345_1804" fill="white">
<path fill-rule="evenodd" clip-rule="evenodd" d="M9.90379 49.5185C15.3735 49.5185 19.8076 45.0844 19.8076 39.6147C19.8076 34.145 15.3735 29.7109 9.90379 29.7109C4.43408 29.7109 0 34.145 0 39.6147C0 45.0844 4.43408 49.5185 9.90379 49.5185ZM9.90445 43.5763C12.0923 43.5763 13.866 41.8027 13.866 39.6148C13.866 37.4269 12.0923 35.6533 9.90445 35.6533C7.71656 35.6533 5.94293 37.4269 5.94293 39.6148C5.94293 41.8027 7.71656 43.5763 9.90445 43.5763Z"/>
</mask>
<path fill-rule="evenodd" clip-rule="evenodd" d="M9.90379 49.5185C15.3735 49.5185 19.8076 45.0844 19.8076 39.6147C19.8076 34.145 15.3735 29.7109 9.90379 29.7109C4.43408 29.7109 0 34.145 0 39.6147C0 45.0844 4.43408 49.5185 9.90379 49.5185ZM9.90445 43.5763C12.0923 43.5763 13.866 41.8027 13.866 39.6148C13.866 37.4269 12.0923 35.6533 9.90445 35.6533C7.71656 35.6533 5.94293 37.4269 5.94293 39.6148C5.94293 41.8027 7.71656 43.5763 9.90445 43.5763Z" fill="#FFDA5D"/>
<path d="M10.8076 39.6147C10.8076 40.1139 10.4029 40.5185 9.90379 40.5185V58.5185C20.3441 58.5185 28.8076 50.055 28.8076 39.6147H10.8076ZM9.90379 38.7109C10.4029 38.7109 10.8076 39.1156 10.8076 39.6147H28.8076C28.8076 29.1745 20.3441 20.7109 9.90379 20.7109V38.7109ZM9 39.6147C9 39.1156 9.40464 38.7109 9.90379 38.7109V20.7109C-0.536486 20.7109 -9 29.1745 -9 39.6147H9ZM9.90379 40.5185C9.40464 40.5185 9 40.1139 9 39.6147H-9C-9 50.055 -0.536486 58.5185 9.90379 58.5185V40.5185ZM4.86596 39.6148C4.86596 36.8321 7.12177 34.5763 9.90445 34.5763V52.5763C17.0629 52.5763 22.866 46.7733 22.866 39.6148H4.86596ZM9.90445 44.6533C7.12177 44.6533 4.86596 42.3975 4.86596 39.6148H22.866C22.866 32.4564 17.0629 26.6533 9.90445 26.6533V44.6533ZM14.9429 39.6148C14.9429 42.3975 12.6871 44.6533 9.90445 44.6533V26.6533C2.746 26.6533 -3.05707 32.4564 -3.05707 39.6148H14.9429ZM9.90445 34.5763C12.6871 34.5763 14.9429 36.8321 14.9429 39.6148H-3.05707C-3.05707 46.7733 2.746 52.5763 9.90445 52.5763V34.5763Z" fill="#FFDA5D" mask="url(#path-11-inside-5_345_1804)"/>
<path d="M54.4707 27.7305L54.4707 35.6535" stroke="#FFDA5D" stroke-width="4" stroke-linecap="round"/>
</svg>
