<svg width="81" height="80" viewBox="0 0 81 80" fill="none" xmlns="http://www.w3.org/2000/svg">
<circle cx="40.4987" cy="22.5085" r="20.0085" stroke="#FFDA5D" stroke-width="5"/>
<mask id="path-2-inside-1_345_1859" fill="white">
<path fill-rule="evenodd" clip-rule="evenodd" d="M74.9974 79.9057C74.4038 61.364 59.186 46.5151 40.5 46.5151C21.8141 46.5151 6.59628 61.364 6.00267 79.9057H0C0.595714 58.0498 18.5002 40.5151 40.5 40.5151C62.4999 40.5151 80.4043 58.0498 81 79.9057H74.9974Z"/>
</mask>
<path fill-rule="evenodd" clip-rule="evenodd" d="M74.9974 79.9057C74.4038 61.364 59.186 46.5151 40.5 46.5151C21.8141 46.5151 6.59628 61.364 6.00267 79.9057H0C0.595714 58.0498 18.5002 40.5151 40.5 40.5151C62.4999 40.5151 80.4043 58.0498 81 79.9057H74.9974Z" fill="black"/>
<path d="M74.9974 79.9057L69.9999 80.0657L70.1549 84.9057H74.9974V79.9057ZM6.00267 79.9057V84.9057H10.8452L11.0001 80.0657L6.00267 79.9057ZM0 79.9057L-4.99814 79.7695L-5.13814 84.9057H0V79.9057ZM81 79.9057V84.9057H86.1382L85.9982 79.7695L81 79.9057ZM79.9948 79.7457C79.3151 58.515 61.8938 41.5151 40.5 41.5151V51.5151C56.4781 51.5151 69.4924 64.2131 69.9999 80.0657L79.9948 79.7457ZM40.5 41.5151C19.1062 41.5151 1.68493 58.515 1.00523 79.7457L11.0001 80.0657C11.5076 64.2131 24.5219 51.5151 40.5 51.5151V41.5151ZM0 84.9057H6.00267V74.9057H0V84.9057ZM40.5 35.5151C15.7844 35.5151 -4.32884 55.2136 -4.99814 79.7695L4.99814 80.042C5.52027 60.8859 21.2159 45.5151 40.5 45.5151V35.5151ZM85.9982 79.7695C85.3289 55.2136 65.2157 35.5151 40.5 35.5151V45.5151C59.7841 45.5151 75.4798 60.8859 76.0019 80.042L85.9982 79.7695ZM74.9974 84.9057H81V74.9057H74.9974V84.9057Z" fill="#FFDA5D" mask="url(#path-2-inside-1_345_1859)"/>
</svg>
